<svg width="1300" height="1160" viewBox="0 0 1300 1160" fill="none" xmlns="http://www.w3.org/2000/svg">
<path fill-rule="evenodd" clip-rule="evenodd" d="M840.69 998.658C778.659 1060.6 727.654 1111.54 697.081 1142.11C653.334 1185.86 596.615 1144.98 550.072 1046.97C500.997 943.632 560.902 878.317 643.873 795.347L677.356 761.864L693.761 745.459L739.919 699.301C771.035 668.185 798.091 619.485 759.084 581.38C720.078 543.275 677.918 562.893 640.715 600.096L553.687 687.124C447.135 793.676 336.79 864.79 156.869 684.869C-15.6111 512.389 -64.7637 306.764 110.648 131.352C341.533 -99.5326 627.413 19.5222 497.545 149.39C466.534 180.401 453.648 192.859 440.439 205.629C426.549 219.057 412.301 232.83 376.246 268.886C353.467 291.665 331.829 338.104 369.707 375.982C407.585 413.86 452.671 392.222 475.225 369.669L700.464 144.429C841.603 3.29029 1053.16 -23.3868 1210.01 131.804C1358.57 278.784 1306.06 533.583 1173.94 665.705C1059.81 779.839 937.095 902.384 840.873 998.475L840.759 998.589L840.69 998.658ZM886.465 555.008C914.109 527.364 914.109 482.545 886.465 454.901C858.822 427.258 814.003 427.258 786.359 454.901C758.715 482.545 758.715 527.364 786.359 555.008C814.003 582.651 858.822 582.651 886.465 555.008ZM1013.63 327.739C1041.27 355.383 1041.27 400.202 1013.63 427.845C985.984 455.489 941.165 455.489 913.521 427.845C885.878 400.202 885.878 355.383 913.521 327.739C941.165 300.095 985.984 300.095 1013.63 327.739ZM344.898 497.739C372.542 470.096 372.542 425.277 344.898 397.633C317.255 369.989 272.436 369.989 244.792 397.633C217.148 425.277 217.148 470.096 244.792 497.739C272.436 525.383 317.255 525.383 344.898 497.739Z" fill="#DA1E37"/>
</svg>
