<svg width="24" height="24" viewBox="0 0 24 24" fill="none" xmlns="http://www.w3.org/2000/svg">
<g clip-path="url(#clip0_11_143)">
<path d="M11.9647 13.1246C11.6177 13.0925 9.24376 11.1065 7.35885 11.1065C5.01537 11.1065 3.67575 12.3045 1.67254 13.4382C0.888065 13.8822 0.631493 14.3789 0.528969 15.0543C0.403451 15.8812 0.754739 16.9232 1.41228 17.3217C10.1649 22.6264 10.7439 23.4714 12.0041 23.4888C13.2644 23.506 14.9521 21.9028 22.6275 17.2091C23.3747 16.7522 23.5108 15.9387 23.4871 15.2955C23.4596 14.5469 23.0928 13.9132 22.4934 13.5668C20.017 12.1356 18.5421 11.01 17.0043 11.0663C14.8908 11.1436 12.3117 13.1568 11.9647 13.1246Z" fill="url(#paint0_linear_11_143)"/>
<mask id="mask0_11_143" style="mask-type:alpha" maskUnits="userSpaceOnUse" x="0" y="11" width="24" height="13">
<path d="M11.9647 13.1246C11.6177 13.0925 9.24376 11.1065 7.35885 11.1065C5.01537 11.1065 3.67575 12.3045 1.67254 13.4382C0.888065 13.8822 0.631493 14.3789 0.528969 15.0543C0.403451 15.8812 0.754739 16.9232 1.41228 17.3217C10.1649 22.6264 10.7439 23.4714 12.0041 23.4888C13.2644 23.506 14.9521 21.9028 22.6275 17.2091C23.3747 16.7522 23.5108 15.9387 23.4871 15.2955C23.4596 14.5469 23.0928 13.9132 22.4934 13.5668C20.017 12.1356 18.5421 11.01 17.0043 11.0663C14.8908 11.1436 12.3117 13.1568 11.9647 13.1246Z" fill="url(#paint1_linear_11_143)"/>
</mask>
<g mask="url(#mask0_11_143)">
<g filter="url(#filter0_dddd_11_143)">
<path d="M11.9647 7.9305C11.6177 7.89834 9.24376 5.91236 7.35885 5.91236C5.01537 5.91236 3.67575 7.11038 1.67254 8.24409C0.888065 8.68805 0.631493 9.18481 0.528969 9.86021C0.403451 10.6871 0.754739 11.7291 1.41228 12.1276C10.1649 17.4322 10.7439 18.2774 12.0041 18.2947C13.2644 18.3119 14.9521 16.7086 22.6275 12.015C23.3747 11.5581 23.5108 10.7446 23.4871 10.1014C23.4596 9.35279 23.0928 8.71912 22.4934 8.37271C20.017 6.94152 18.5421 5.81586 17.0043 5.87214C14.8908 5.9495 12.3117 7.96267 11.9647 7.9305Z" fill="url(#paint2_linear_11_143)"/>
</g>
</g>
<path d="M11.9647 7.9305C11.6177 7.89834 9.24376 5.91236 7.35885 5.91236C5.01537 5.91236 3.67575 7.11038 1.67254 8.24409C0.888065 8.68805 0.631493 9.18481 0.528969 9.86021C0.403451 10.6871 0.754739 11.7291 1.41228 12.1276C10.1649 17.4322 10.7439 18.2774 12.0041 18.2947C13.2644 18.3119 14.9521 16.7086 22.6275 12.015C23.3747 11.5581 23.5108 10.7446 23.4871 10.1014C23.4596 9.35279 23.0928 8.71912 22.4934 8.37271C20.017 6.94152 18.5421 5.81586 17.0043 5.87214C14.8908 5.9495 12.3117 7.96267 11.9647 7.9305Z" fill="url(#paint3_linear_11_143)"/>
<mask id="mask1_11_143" style="mask-type:alpha" maskUnits="userSpaceOnUse" x="0" y="5" width="24" height="14">
<path d="M11.9647 7.9305C11.6177 7.89834 9.24376 5.91236 7.35885 5.91236C5.01537 5.91236 3.67575 7.11038 1.67254 8.24409C0.888065 8.68805 0.631493 9.18481 0.528969 9.86021C0.403451 10.6871 0.754739 11.7291 1.41228 12.1276C10.1649 17.4322 10.7439 18.2774 12.0041 18.2947C13.2644 18.3119 14.9521 16.7086 22.6275 12.015C23.3747 11.5581 23.5108 10.7446 23.4871 10.1014C23.4596 9.35279 23.0928 8.71912 22.4934 8.37271C20.017 6.94152 18.5421 5.81586 17.0043 5.87214C14.8908 5.9495 12.3117 7.96267 11.9647 7.9305Z" fill="url(#paint4_linear_11_143)"/>
</mask>
<g mask="url(#mask1_11_143)">
<g filter="url(#filter1_dddd_11_143)">
<path d="M11.9648 2.57558C11.6178 2.54342 9.2439 0.55744 7.35898 0.55744C5.01548 0.55744 3.67589 1.75546 1.67266 2.88916C0.888186 3.33313 0.631615 3.82989 0.529091 4.50529C0.403573 5.33215 0.754862 6.37416 1.4124 6.77268C10.165 12.0773 10.744 12.9224 12.0042 12.9397C13.2645 12.9569 14.9522 11.3537 22.6277 6.6601C23.3749 6.20316 23.511 5.38972 23.4873 4.74647C23.4598 3.99787 23.0929 3.3642 22.4936 3.01778C20.0172 1.5866 18.5423 0.460937 17.0044 0.51722C14.8909 0.594569 12.3118 2.60775 11.9648 2.57558Z" fill="url(#paint5_linear_11_143)"/>
</g>
</g>
<path d="M11.9648 2.57558C11.6178 2.54342 9.24386 0.55744 7.35894 0.55744C5.01544 0.55744 3.67585 1.75546 1.67263 2.88916C0.888155 3.33313 0.631585 3.82989 0.529061 4.50529C0.403543 5.33215 0.754831 6.37416 1.41237 6.77268C10.165 12.0773 10.744 12.9224 12.0042 12.9397C13.2645 12.9569 14.9522 11.3537 22.6277 6.6601C23.3748 6.20316 23.511 5.38972 23.4873 4.74647C23.4597 3.99787 23.0929 3.3642 22.4936 3.01778C20.0172 1.5866 18.5423 0.460937 17.0044 0.51722C14.8909 0.594569 12.3118 2.60775 11.9648 2.57558Z" fill="url(#paint6_linear_11_143)"/>
</g>
<defs>
<filter id="filter0_dddd_11_143" x="-255.496" y="-42.1299" width="534.986" height="957.425" filterUnits="userSpaceOnUse" color-interpolation-filters="sRGB">
<feFlood flood-opacity="0" result="BackgroundImageFix"/>
<feColorMatrix in="SourceAlpha" type="matrix" values="0 0 0 0 0 0 0 0 0 0 0 0 0 0 0 0 0 0 127 0" result="hardAlpha"/>
<feOffset dy="40"/>
<feGaussianBlur stdDeviation="44"/>
<feColorMatrix type="matrix" values="0 0 0 0 0 0 0 0 0 0 0 0 0 0 0 0 0 0 0.1 0"/>
<feBlend mode="normal" in2="BackgroundImageFix" result="effect1_dropShadow_11_143"/>
<feColorMatrix in="SourceAlpha" type="matrix" values="0 0 0 0 0 0 0 0 0 0 0 0 0 0 0 0 0 0 127 0" result="hardAlpha"/>
<feOffset dy="160"/>
<feGaussianBlur stdDeviation="80"/>
<feColorMatrix type="matrix" values="0 0 0 0 0 0 0 0 0 0 0 0 0 0 0 0 0 0 0.09 0"/>
<feBlend mode="normal" in2="effect1_dropShadow_11_143" result="effect2_dropShadow_11_143"/>
<feColorMatrix in="SourceAlpha" type="matrix" values="0 0 0 0 0 0 0 0 0 0 0 0 0 0 0 0 0 0 127 0" result="hardAlpha"/>
<feOffset dy="361"/>
<feGaussianBlur stdDeviation="108"/>
<feColorMatrix type="matrix" values="0 0 0 0 0 0 0 0 0 0 0 0 0 0 0 0 0 0 0.05 0"/>
<feBlend mode="normal" in2="effect2_dropShadow_11_143" result="effect3_dropShadow_11_143"/>
<feColorMatrix in="SourceAlpha" type="matrix" values="0 0 0 0 0 0 0 0 0 0 0 0 0 0 0 0 0 0 127 0" result="hardAlpha"/>
<feOffset dy="641"/>
<feGaussianBlur stdDeviation="128"/>
<feColorMatrix type="matrix" values="0 0 0 0 0 0 0 0 0 0 0 0 0 0 0 0 0 0 0.01 0"/>
<feBlend mode="normal" in2="effect3_dropShadow_11_143" result="effect4_dropShadow_11_143"/>
<feBlend mode="normal" in="SourceGraphic" in2="effect4_dropShadow_11_143" result="shape"/>
</filter>
<filter id="filter1_dddd_11_143" x="-255.496" y="-47.4848" width="534.986" height="957.425" filterUnits="userSpaceOnUse" color-interpolation-filters="sRGB">
<feFlood flood-opacity="0" result="BackgroundImageFix"/>
<feColorMatrix in="SourceAlpha" type="matrix" values="0 0 0 0 0 0 0 0 0 0 0 0 0 0 0 0 0 0 127 0" result="hardAlpha"/>
<feOffset dy="40"/>
<feGaussianBlur stdDeviation="44"/>
<feColorMatrix type="matrix" values="0 0 0 0 0 0 0 0 0 0 0 0 0 0 0 0 0 0 0.1 0"/>
<feBlend mode="normal" in2="BackgroundImageFix" result="effect1_dropShadow_11_143"/>
<feColorMatrix in="SourceAlpha" type="matrix" values="0 0 0 0 0 0 0 0 0 0 0 0 0 0 0 0 0 0 127 0" result="hardAlpha"/>
<feOffset dy="160"/>
<feGaussianBlur stdDeviation="80"/>
<feColorMatrix type="matrix" values="0 0 0 0 0 0 0 0 0 0 0 0 0 0 0 0 0 0 0.09 0"/>
<feBlend mode="normal" in2="effect1_dropShadow_11_143" result="effect2_dropShadow_11_143"/>
<feColorMatrix in="SourceAlpha" type="matrix" values="0 0 0 0 0 0 0 0 0 0 0 0 0 0 0 0 0 0 127 0" result="hardAlpha"/>
<feOffset dy="361"/>
<feGaussianBlur stdDeviation="108"/>
<feColorMatrix type="matrix" values="0 0 0 0 0 0 0 0 0 0 0 0 0 0 0 0 0 0 0.05 0"/>
<feBlend mode="normal" in2="effect2_dropShadow_11_143" result="effect3_dropShadow_11_143"/>
<feColorMatrix in="SourceAlpha" type="matrix" values="0 0 0 0 0 0 0 0 0 0 0 0 0 0 0 0 0 0 127 0" result="hardAlpha"/>
<feOffset dy="641"/>
<feGaussianBlur stdDeviation="128"/>
<feColorMatrix type="matrix" values="0 0 0 0 0 0 0 0 0 0 0 0 0 0 0 0 0 0 0.01 0"/>
<feBlend mode="normal" in2="effect3_dropShadow_11_143" result="effect4_dropShadow_11_143"/>
<feBlend mode="normal" in="SourceGraphic" in2="effect4_dropShadow_11_143" result="shape"/>
</filter>
<linearGradient id="paint0_linear_11_143" x1="11.9967" y1="11.0642" x2="11.9967" y2="23.4888" gradientUnits="userSpaceOnUse">
<stop stop-color="#D00075"/>
<stop offset="1" stop-color="#980276"/>
</linearGradient>
<linearGradient id="paint1_linear_11_143" x1="11.9967" y1="11.0642" x2="11.9967" y2="23.4888" gradientUnits="userSpaceOnUse">
<stop stop-color="#FF006C"/>
<stop offset="1" stop-color="#D72483"/>
</linearGradient>
<linearGradient id="paint2_linear_11_143" x1="11.9967" y1="5.87012" x2="11.9967" y2="18.2947" gradientUnits="userSpaceOnUse">
<stop stop-color="#FF006C"/>
<stop offset="1" stop-color="#D72483"/>
</linearGradient>
<linearGradient id="paint3_linear_11_143" x1="11.9967" y1="5.87012" x2="11.9967" y2="18.2947" gradientUnits="userSpaceOnUse">
<stop stop-color="#FD0469"/>
<stop offset="1" stop-color="#CE0074"/>
</linearGradient>
<linearGradient id="paint4_linear_11_143" x1="11.9967" y1="5.87012" x2="11.9967" y2="18.2947" gradientUnits="userSpaceOnUse">
<stop stop-color="#F80064"/>
<stop offset="1" stop-color="#C70173"/>
</linearGradient>
<linearGradient id="paint5_linear_11_143" x1="11.9968" y1="0.515198" x2="11.9968" y2="12.9397" gradientUnits="userSpaceOnUse">
<stop stop-color="#FF006C"/>
<stop offset="1" stop-color="#D72483"/>
</linearGradient>
<linearGradient id="paint6_linear_11_143" x1="11.9968" y1="0.515198" x2="11.9968" y2="12.9397" gradientUnits="userSpaceOnUse">
<stop stop-color="#FF0A62"/>
<stop offset="1" stop-color="#DD1155"/>
</linearGradient>
<clipPath id="clip0_11_143">
<rect width="23" height="23" fill="white" transform="translate(0.5 0.5)"/>
</clipPath>
</defs>
</svg>
