<svg width="22" height="24" viewBox="0 0 22 24" fill="none" xmlns="http://www.w3.org/2000/svg">
<g clip-path="url(#clip0_11_114)">
<path d="M7.11386 17.2708C7.19628 17.3133 7.26354 17.3692 7.31566 17.4382C7.32253 17.4475 7.33033 17.4546 7.33909 17.4596C7.34812 17.465 7.35626 17.4714 7.36354 17.4786C7.39976 17.5152 7.43679 17.5484 7.47463 17.578C7.48662 17.5875 7.49766 17.5986 7.50776 17.6112C7.51814 17.6241 7.52898 17.6374 7.54028 17.6509C7.54728 17.6592 7.56418 17.6733 7.59098 17.6928C7.60904 17.7061 7.6227 17.7209 7.63199 17.7368C7.6398 17.7501 7.65152 17.7609 7.66714 17.7688C7.68263 17.7766 7.69508 17.7865 7.70451 17.7983C7.72687 17.8264 7.75009 17.8522 7.7742 17.8756C7.86645 17.966 7.95796 18.0569 8.04873 18.1485C8.06353 18.1633 8.07936 18.1769 8.09619 18.1894C8.11209 18.2013 8.12683 18.2141 8.14044 18.2278C8.36518 18.4574 8.6187 18.7105 8.90097 18.9873C8.91578 19.0018 8.92979 19.0167 8.94299 19.0317C8.97025 19.0634 9.00641 19.0837 9.03549 19.1135C9.09528 19.1749 9.14788 19.2231 9.19326 19.2582C9.25386 19.3054 9.30611 19.3519 9.35001 19.3973C9.36011 19.4079 9.37189 19.417 9.38536 19.4247C9.40328 19.435 9.41856 19.4509 9.43122 19.4726C9.4432 19.493 9.44307 19.5123 9.43081 19.5304C9.42704 19.5357 9.42657 19.5414 9.4294 19.5473C9.44259 19.5742 9.44233 19.6001 9.42859 19.6249L7.11386 17.2708Z" fill="url(#paint0_linear_11_114)"/>
<path d="M3.44151 16.226C3.43954 16.2241 3.43842 16.2215 3.43839 16.2187C3.43834 16.216 3.4394 16.2132 3.44131 16.2114L3.96086 15.6602C3.962 15.659 3.96337 15.658 3.96491 15.6573C3.96644 15.6567 3.96808 15.6564 3.96974 15.6564C3.9714 15.6564 3.97304 15.6567 3.97457 15.6573C3.97609 15.658 3.97748 15.659 3.97862 15.6602L5.88431 17.6122L6.99512 18.7457C7.62562 19.3923 8.25816 20.037 8.8927 20.6798C8.98537 20.7736 9.02509 20.8858 9.01189 21.0162C8.99492 21.1832 8.85696 21.3196 8.68909 21.3533C8.56021 21.3792 8.41781 21.3165 8.32953 21.2229C8.2222 21.1088 8.13736 21.0204 8.07501 20.9571C7.61808 20.4936 7.16216 20.0292 6.70726 19.5637L3.44151 16.226Z" fill="url(#paint1_linear_11_114)"/>
<path d="M11.3872 1.78348C10.7624 1.38223 10.1014 1.0245 9.37942 0.84226L9.3781 0.841988C9.17409 0.774373 8.96716 0.716659 8.75735 0.668842L8.25295 0.576714C7.40792 0.454819 6.57945 0.478188 5.76754 0.646821C4.28344 0.955331 2.91952 1.73539 1.91012 2.85812C1.07801 3.78344 0.52426 4.84958 0.248865 6.05655C-0.0468654 7.3518 0.017371 8.71534 0.459955 9.9807C0.78383 10.9066 1.27658 11.734 1.93819 12.4629C2.02546 12.5575 2.11347 12.6512 2.20221 12.7441C2.28598 12.832 2.37803 12.9215 2.47835 13.0129C2.72089 13.234 2.96389 13.4546 3.20737 13.6745L4.98458 15.2911C5.50413 15.7625 6.02375 16.2341 6.54342 16.7057C6.65412 16.8061 6.84427 16.9946 7.11387 17.2707C7.1963 17.3133 7.26355 17.3692 7.31567 17.4382C7.32255 17.4475 7.33035 17.4546 7.3391 17.4596C7.34813 17.465 7.35628 17.4714 7.36355 17.4786C7.39977 17.5152 7.4368 17.5484 7.47464 17.578C7.48664 17.5875 7.49768 17.5986 7.50778 17.6112C7.51815 17.6241 7.52899 17.6374 7.54029 17.6508C7.54729 17.6592 7.5642 17.6733 7.59099 17.6928C7.60905 17.7061 7.62271 17.7209 7.632 17.7368C7.63982 17.7501 7.65154 17.7609 7.66715 17.7688C7.68265 17.7766 7.69509 17.7865 7.70453 17.7983C7.72688 17.8264 7.75011 17.8522 7.77421 17.8756C7.86646 17.966 7.95797 18.0569 8.04874 18.1485C8.06354 18.1632 8.07937 18.1769 8.0962 18.1894C8.1121 18.2013 8.12685 18.2141 8.14045 18.2278C8.3652 18.4574 8.61871 18.7105 8.90098 18.9873C8.9158 19.0018 8.9298 19.0167 8.943 19.0317C8.97026 19.0634 9.00642 19.0837 9.03551 19.1135C9.0953 19.1749 9.1479 19.2231 9.19327 19.2582C9.25387 19.3054 9.30613 19.3519 9.35003 19.3973C9.36013 19.4079 9.37191 19.417 9.38538 19.4247C9.40329 19.435 9.41857 19.4509 9.43123 19.4726C9.44321 19.493 9.44308 19.5123 9.43083 19.5304C9.42705 19.5357 9.42659 19.5414 9.42941 19.5473C9.44261 19.5742 9.44235 19.6001 9.4286 19.6249C9.62535 19.8206 9.75639 19.9549 9.82171 20.0277C10.1156 20.3544 10.2524 20.7744 10.1972 21.2091C10.1257 21.7755 9.71404 22.2587 9.1652 22.417C8.61455 22.5757 8.10085 22.4128 7.70998 22.0091C7.42246 21.7123 7.0013 21.2824 6.44646 20.7196L3.05244 17.2651L2.75125 16.9571C2.75048 16.9562 2.74954 16.9556 2.7485 16.9552C2.74746 16.9548 2.74635 16.9545 2.74522 16.9545C2.74409 16.9545 2.74296 16.9548 2.74192 16.9552C2.74088 16.9558 2.73992 16.9564 2.73914 16.9572L2.10364 17.6317C2.10108 17.6345 2.09971 17.6381 2.09978 17.6419C2.09985 17.6456 2.10139 17.6493 2.10405 17.6519L4.97872 20.5394L6.10973 21.6813C6.39273 21.9641 6.67815 22.2459 6.9553 22.5343C7.10573 22.6906 7.25824 22.8168 7.41284 22.9128C7.59329 23.0251 7.81172 23.1323 8.06813 23.2348C9.46214 23.792 11.0666 23.4543 12.1146 22.3808C12.9113 21.5649 13.3034 20.4246 13.1493 19.2863C13.0364 18.4533 12.682 17.7352 12.0859 17.1319L9.267 14.3606L6.68724 11.8348C6.14589 11.3011 5.61234 10.7596 5.0866 10.2102C4.93832 10.0555 4.84608 9.9574 4.80984 9.91605C3.38554 8.29107 3.77197 5.7733 5.60331 4.63805C6.19639 4.27034 6.90944 4.0782 7.61545 4.11922C8.4528 4.16784 9.17954 4.46988 9.79565 5.02535C9.86028 5.08367 9.95583 5.17863 10.0823 5.31023C11.1478 6.4186 12.2132 7.5267 13.2785 8.63453C13.2793 8.63534 13.2803 8.63595 13.2814 8.6363C13.2825 8.63666 13.2836 8.63675 13.2848 8.63657C13.2859 8.6364 13.2869 8.63595 13.2878 8.63527C13.2887 8.6346 13.2894 8.63372 13.2899 8.63271C13.8518 7.42312 13.9805 6.05271 13.6147 4.77422C13.262 3.5416 12.4651 2.47586 11.3872 1.78348Z" fill="url(#paint2_linear_11_114)"/>
<path d="M12.9834 14.2406C13.0397 14.185 13.0961 14.1295 13.1525 14.0742C14.4157 12.8374 15.6787 11.6006 16.9418 10.3636C17.0126 10.2945 17.0897 10.1924 17.1658 10.1029C18.4778 8.56241 18.2722 6.26405 16.6889 4.99122C16.5824 4.90556 16.472 4.82716 16.3574 4.75605C15.6792 4.33378 14.9318 4.15815 14.1156 4.22913C14.053 4.23452 13.9342 4.2519 13.7591 4.28126C13.7513 4.2826 13.7459 4.27965 13.7428 4.27237C13.2878 3.18582 12.5293 2.231 11.5555 1.55923C11.5541 1.55825 11.5529 1.55693 11.5522 1.5554C11.5514 1.55387 11.551 1.55217 11.5511 1.55048C11.5511 1.54878 11.5516 1.54713 11.5525 1.54569C11.5534 1.54426 11.5546 1.54307 11.5561 1.54226C12.6973 0.903954 13.9124 0.597465 15.2014 0.622787C15.3445 0.625616 15.4863 0.633495 15.6272 0.646425C16.9007 0.762798 18.0427 1.18223 19.053 1.90471C20.0166 2.59366 20.8104 3.54343 21.3069 4.64229C21.8457 5.83431 22.0363 7.08788 21.8786 8.403C21.8615 8.5451 21.8414 8.6767 21.8185 8.79778C21.5337 10.302 20.8496 11.584 19.7661 12.6437C19.6414 12.7656 19.4561 12.9319 19.2103 13.1426C19.1439 13.1996 19.0688 13.2692 18.9849 13.3515C18.2027 14.1193 17.4199 14.8868 16.6364 15.654L13.3422 18.8796C13.3416 18.8802 13.3408 18.8806 13.34 18.8808C13.3392 18.881 13.3384 18.881 13.3376 18.8808C13.3368 18.8805 13.3361 18.88 13.3356 18.8795C13.335 18.8789 13.3347 18.8781 13.3345 18.8774C13.1642 18.0975 12.7693 17.432 12.2027 16.8792C11.8896 16.5738 11.5734 16.2633 11.2541 15.9481C11.2533 15.9472 11.2526 15.9462 11.2521 15.945C11.2517 15.9439 11.2515 15.9427 11.2515 15.9416C11.2515 15.9404 11.2518 15.9391 11.2522 15.9381C11.2527 15.9369 11.2534 15.9359 11.2543 15.9352L12.9834 14.2406Z" fill="url(#paint3_linear_11_114)"/>
</g>
<defs>
<linearGradient id="paint0_linear_11_114" x1="2.4264" y1="7.7284" x2="15.6687" y2="29.0529" gradientUnits="userSpaceOnUse">
<stop offset="0.257029" stop-color="#591A17"/>
<stop offset="0.544788" stop-color="#940D3B"/>
</linearGradient>
<linearGradient id="paint1_linear_11_114" x1="2.42643" y1="7.7284" x2="15.6688" y2="29.0529" gradientUnits="userSpaceOnUse">
<stop offset="0.257029" stop-color="#591A17"/>
<stop offset="0.544788" stop-color="#940D3B"/>
</linearGradient>
<linearGradient id="paint2_linear_11_114" x1="2.42641" y1="7.7284" x2="15.6688" y2="29.0529" gradientUnits="userSpaceOnUse">
<stop offset="0.257029" stop-color="#591A17"/>
<stop offset="0.544788" stop-color="#940D3B"/>
</linearGradient>
<linearGradient id="paint3_linear_11_114" x1="22.8371" y1="6.16731" x2="12.134" y2="17.2748" gradientUnits="userSpaceOnUse">
<stop offset="0.628469" stop-color="#B92222"/>
<stop offset="0.81192" stop-color="#8D1213"/>
</linearGradient>
<clipPath id="clip0_11_114">
<rect width="21.8642" height="23" fill="white" transform="translate(0.0679016 0.5)"/>
</clipPath>
</defs>
</svg>
